Motion_kv01_l
version=1
nRows=12
nColumns=43
inDegrees=yes
endheader
time	pelvis_tilt	pelvis_list	pelvis_rotation	pelvis_tx	pelvis_ty	pelvis_tz	hip_flexion_r	hip_adduction_r	hip_rotation_r	knee_angle_r	ankle_angle_r	subtalar_angle_r	mtp_angle_r	hip_flexion_l	hip_adduction_l	hip_rotation_l	knee_angle_l	ankle_angle_l	subtalar_angle_l	mtp_angle_l	lumbar_extension	lumbar_bending	lumbar_rotation	neck_flexion	neck_lateral_bending	neck_rotation	arm_flex_r	arm_add_r	arm_rot_r	elbow_flex_r	pro_sup_r	wrist_flex_r	wrist_dev_r	hand_finger_flex_r	arm_flex_l	arm_add_l	arm_rot_l	elbow_flex_l	pro_sup_l	wrist_flex_l	wrist_dev_l	hand_finger_flex_l
      1.41750000	      3.49999683	    -11.32708979	     91.94903720	      0.02825852	      0.62572885	      0.32003319	     73.60714139	    -10.90891177	    -10.87978007	   -108.18699798	     31.19931148	      7.89112651	      7.15619107	     76.84783416	     -7.94414338	      0.05128706	   -108.70272517	     36.73402641	     10.62200510	     -6.99317804	    -50.84698527	      2.68391919	      3.22516482	     15.22177505	      1.08863931	      2.88844691	    237.04889806	   -140.54944263	    205.93829274	     76.14382415	    123.24703229	    -39.54441839	    -24.99999983	     43.56244602	     63.43588493	    -39.25380572	     36.77670707	     90.43179436	    127.95339187	    -32.81958064	      2.04915549	     90.00021046
      1.42000000	      3.49482634	    -11.50478204	     92.00366312	      0.02830995	      0.62857419	      0.31931449	     73.43870576	    -10.88169687	    -10.89504405	   -107.69646534	     31.00459556	      7.89827989	      7.19443285	     76.66526798	     -7.90659022	      0.03288982	   -108.20533081	     36.56720824	     10.65855614	     -6.99143951	    -50.70222456	      2.70233183	      3.16209509	     15.33058282	      1.11127037	      2.94294598	    236.30431550	   -140.61811472	    205.48415515	     76.13034810	    123.17869705	    -39.45965557	    -24.99999983	     43.52694108	     62.57941254	    -39.40154110	     36.22430141	     90.46421528	    128.20549736	    -32.75568127	      2.00910793	     90.00021046
      1.42250000	      3.49142630	    -11.67680154	     92.05355857	      0.02829444	      0.63143930	      0.31859762	     73.26477041	    -10.85653931	    -10.90935512	   -107.20459372	     30.80272868	      7.91512547	      7.22557096	     76.47403398	     -7.86465897	      0.01140860	   -107.70512813	     36.39600962	     10.69354304	     -7.00046218	    -50.55915067	      2.72929991	      3.11548580	     15.42540836	      1.14219412	      2.98497158	    235.56599330	   -140.68525346	    205.02041443	     76.09182511	    123.08068017	    -39.40022489	    -24.99999983	     43.49814972	     61.73091209	    -39.54023524	     35.71326838	     90.46950995	    128.42203930	    -32.70175131	      1.97256810	     90.00021046
      1.42500000	      3.48623554	    -11.85627100	     92.11164945	      0.02834227	      0.63429571	      0.31789262	     73.09732451	    -10.83394551	    -10.93168085	   -106.70714460	     30.60931142	      7.92985433	      7.26124256	     76.29155253	     -7.81901234	     -0.00500406	   -107.19565617	     36.23751326	     10.72226703	     -7.01614496	    -50.40952393	      2.74593372	      3.06199170	     15.53466603	      1.17302350	      3.02848595	    234.79341104	   -140.74691813	    204.53586171	     76.07830928	    122.97335973	    -39.33156368	    -24.99999983	     43.47522061	     60.86990247	    -39.66005659	     35.15572664	     90.46596571	    128.65462235	    -32.64260903	      1.92495046	     90.00021046
      1.42750000	      3.48517956	    -12.02963392	     92.16524324	      0.02831913	      0.63720387	      0.31717776	     72.91871860	    -10.81556018	    -10.95014881	   -106.20474716	     30.40682650	      7.95483943	      7.28783144	     76.09251248	     -7.77212283	     -0.02548547	   -106.68237593	     36.07129748	     10.75268094	     -7.04150873	    -50.26450969	      2.77300611	      3.02656081	     15.63080109	      1.21056876	      3.05667049	    234.02608295	   -140.81198050	    204.04478601	     76.02204532	    122.84071147	    -39.30078135	    -24.99999983	     43.45139243	     60.02666316	    -39.76593414	     34.63663775	     90.42812738	    128.84103771	    -32.60315424	      1.89170675	     90.00021046
      1.43000000	      3.47977637	    -12.20240346	     92.22815852	      0.02836170	      0.64010061	      0.31645661	     72.73775289	    -10.80111120	    -10.97679118	   -105.70541759	     30.20650010	      7.97922920	      7.31624133	     75.89909203	     -7.72362992	     -0.03996820	   -106.16583553	     35.91103121	     10.77906169	     -7.07498840	    -50.11955933	      2.78824261	      2.98375281	     15.73896120	      1.25058574	      3.08102240	    233.21842885	   -140.87258328	    203.51915167	     75.99198721	    122.69625114	    -39.27979748	    -24.99999983	     43.42699650	     59.15856896	    -39.84481525	     34.06374972	     90.38332020	    129.03517935	    -32.57246507	      1.85321975	     90.00021046
      1.43250000	      3.47590240	    -12.37475746	     92.28351041	      0.02831654	      0.64303115	      0.31574512	     72.55477645	    -10.79379965	    -11.00202669	   -105.19845036	     30.00248943	      8.00871185	      7.34125661	     75.69671658	     -7.66873266	     -0.06063688	   -105.64023140	     35.74595921	     10.80749513	     -7.11658721	    -49.97607799	      2.81551481	      2.96041387	     15.84971382	      1.29421083	      3.09169757	    232.42008827	   -140.93695995	    202.97493813	     75.94195166	    122.54357636	    -39.27926632	    -24.99999983	     43.39895149	     58.28704959	    -39.90277552	     33.50269229	     90.30659009	    129.21876482	    -32.55089765	      1.81974831	     90.00021046
      1.43500000	      3.47167524	    -12.54374202	     92.34567747	      0.02830601	      0.64597488	      0.31503131	     72.36487317	    -10.78968480	    -11.03184695	   -104.68893888	     29.80012461	      8.04029589	      7.36488080	     75.49102586	     -7.61435540	     -0.07893146	   -105.11079426	     35.58193398	     10.83516236	     -7.16545370	    -49.83555088	      2.83708647	      2.93745858	     15.95753651	      1.33739597	      3.09090991	    231.60060679	   -140.99073204	    202.42571567	     75.89564621	    122.39232545	    -39.29505535	    -24.99999983	     43.36714728	     57.42078069	    -39.94129710	     32.92662001	     90.21499117	    129.40022931	    -32.54170750	      1.78751554	     90.00021046
      1.43750000	      3.46791790	    -12.70984697	     92.40876457	      0.02828818	      0.64895373	      0.31432081	     72.16881853	    -10.78874681	    -11.06330320	   -104.17149774	     29.59898993	      8.07425044	      7.38476778	     75.27823092	     -7.55953037	     -0.09828968	   -104.57372122	     35.41482761	     10.86466529	     -7.21984955	    -49.69964871	      2.85930445	      2.92353383	     16.06617565	      1.37975977	      3.07805276	    230.78175267	   -141.04068694	    201.87530303	     75.83272083	    122.24405000	    -39.33223090	    -24.99999983	     43.32957169	     56.56745561	    -39.96321679	     32.35715680	     90.09422563	    129.57215404	    -32.54706865	      1.76279537	     90.00021046
      1.44000000	      3.46352674	    -12.86972401	     92.47231793	      0.02825650	      0.65194862	      0.31361111	     71.96178235	    -10.78954205	    -11.09868486	   -103.65269295	     29.39651612	      8.10848555	      7.40225645	     75.06007663	     -7.50276599	     -0.11818984	   -104.03268939	     35.24347904	     10.89550026	     -7.27992619	    -49.56898732	      2.88213297	      2.91400003	     16.17542574	      1.42261079	      3.05378501	    229.94750705	   -141.09045529	    201.30599150	     75.77004002	    122.09944780	    -39.39094920	    -24.99999983	     43.28436582	     55.70800714	    -39.96044218	     31.77138581	     89.95643929	    129.74521459	    -32.56909532	      1.74176841	     90.00021046
      1.44250000	      3.45835140	    -13.02591063	     92.53978225	      0.02823060	      0.65496413	      0.31289206	     71.74860635	    -10.79174002	    -11.13839986	   -103.13083470	     29.19396497	      8.14105985	      7.41896189	     74.83691036	     -7.44604835	     -0.13463887	   -103.48985864	     35.06678014	     10.92672087	     -7.34670285	    -49.44384413	      2.90479130	      2.90829684	     16.29481258	      1.46334252	      3.01773303	    229.09740535	   -141.13921488	    200.70991523	     75.70799240	    121.96508135	    -39.46414397	    -24.99999983	     43.23039570	     54.84016171	    -39.93101957	     31.16217424	     89.79793243	    129.93337202	    -32.60382061	      1.72092158	     90.00021046
      1.44500000	      3.45708166	    -13.18373833	     92.60170835	      0.02816875	      0.65798928	      0.31218761	     71.53396634	    -10.79648663	    -11.18636445	   -102.59848432	     28.99715348	      8.16918377	      7.43758317	     74.61267689	     -7.38623987	     -0.14757399	   -102.93683811	     34.89054586	     10.95568599	     -7.42194676	    -49.32090799	      2.92922401	      2.91124058	     16.41912889	      1.50007877	      2.96847416	    228.23215535	   -141.17856880	    200.10654332	     75.67323105	    121.85869431	    -39.53584599	    -24.99999983	     43.16763689	     53.97974484	    -39.89047672	     30.53762041	     89.62493947	    130.15679042	    -32.64142041	      1.69226869	     90.00021046
